<svg xml:space="preserve" viewBox="0 0 100 100" y="0" x="0" xmlns="http://www.w3.org/2000/svg" id="Layer_1" version="1.1" style="height: 100%; width: 100%; background: rgba(255, 255, 255, 0);
@keyframes heartbeat
	{
		0% {
			animation-timing-function: cubic-bezier(0.1678,0.6042,0.5465,3.0859);
			transform: scale(1.3);
		}
		30% {
			animation-timing-function: cubic-bezier(0.3206,0.3435,0.6825,0.6598);
			transform: scale(1.15);
		}
		31% {
			animation-timing-function: cubic-bezier(0.2811,0.5061,0.5347,0.909);
			transform: scale(1.1458);
		}
		100% {
			transform: scale(1);
		}
	}
" width="128px" height="128px"><g class="ldl-scale" style="transform-origin: 50% 50%; transform: rotate(0deg) scale(0.8, 0.8);"><g class="ldl-ani"><g class="ldl-layer"><g class="ldl-ani" style="transform-origin: 50px 50px; transform: scale(1.3); animation: 1.11111s linear -0.648148s infinite normal forwards running heartbeat;"><path fill="#c33837" d="M72.3 10.7c-13.6 0-20.9 8.6-22.3 13.8-1.2-5.4-10.4-13.8-22.3-13.8C15.2 10.7 5 20.8 5 33.4c0 .6 0 1.3.1 1.9v.3l.3 1.8c0 .1.1.3.1.4.1.6.3 1.2.4 1.7 0 .1.1.3.1.4.1.5.3 1 .5 1.5.1.1.1.3.2.4.2.5.4 1.1.6 1.6.1.2.2.5.3.7.2.5.5 1 .7 1.4.1.3.3.5.4.8.2.4.3.7.5 1 .3.5.5.9.8 1.4.1.2.3.4.4.6.4.7.8 1.3 1.3 2 0 .1.1.1.1.2.3.4.5.8.8 1.2 1 1.3 2 2.7 3.1 4 .1.1.2.2.2.3.6.7 1.3 1.5 1.9 2.2l.1.1c3 3.4 6.4 6.6 9.7 9.7 6.7 6 13.4 11.4 18 15.7l1.2 1.2c.1.1.2.1.2.2.4.3.7.7 1 1l.1.1c.3.3.6.7.9 1l.2.2c.3.3.6.6.8.9.2-.3.5-.7.7-1 .1-.1.1-.2.2-.2.3-.3.6-.7.9-1.1 0 0 0-.1.1-.1.3-.3.6-.7 1-1.1l.2-.2 1.2-1.2.1-.1c.4-.4.8-.8 1.3-1.2l.1-.1c5-4.7 12-10.3 18.6-16.4 2.6-2.4 5.2-4.9 7.5-7.4l.2-.2c.6-.7 1.2-1.4 1.9-2.1l.3-.3c1.1-1.3 2.2-2.6 3.2-4 .2-.3.5-.6.7-1 .2-.2.3-.5.5-.7.3-.5.6-.9.9-1.4.2-.3.4-.6.5-.8.2-.3.4-.7.6-1 .2-.4.5-.8.7-1.2.1-.2.3-.5.4-.7.3-.5.5-1 .7-1.5l.3-.6c.2-.5.4-1 .6-1.6.1-.1.1-.3.2-.4.2-.5.4-1.1.5-1.6 0-.1.1-.3.1-.4.2-.6.3-1.2.4-1.8 0-.1.1-.3.1-.4l.3-1.8v-.3-2c0-12.6-10.2-22.7-22.7-22.7z" style="fill: rgb(255, 180, 179);"></path></g></g><g class="ldl-layer"><g class="ldl-ani"><g><g class="ldl-layer"><g class="ldl-ani" style="transform-origin: 50px 50px; transform: scale(1.3); animation: 1.11111s linear -0.740741s infinite normal forwards running heartbeat;"><path fill="#f4e6c8" d="M84.2 56.6l-.3.3.3-.3z" style="fill: rgb(255, 255, 255);"></path></g></g><g class="ldl-layer"><g class="ldl-ani" style="transform-origin: 50px 50px; transform: scale(1.3); animation: 1.11111s linear -0.833333s infinite normal forwards running heartbeat;"><path fill="#f4e6c8" d="M61.7 41c-.3-.8-1.1-1.3-2-1.2-.9.1-1.6.7-1.8 1.5l-5.7 22.8L50 53.2l-4.9-23.3c-.2-.9-1-1.6-1.9-1.6-.9 0-1.7.6-2 1.5l-6.3 22.9H12.7c1 1.3 2 2.7 3.1 4h20.6c.9 0 1.7-.6 1.9-1.5l4.6-16.4L50 72.7l.2.7c.2.9 1 1.6 1.9 1.6.9 0 1.7-.6 1.9-1.5l6.3-25.3 2.9 7.2c.3.8 1 1.2 1.9 1.2h19c1.1-1.3 2.2-2.6 3.2-4H66.5L61.7 41z" style="fill: rgb(255, 255, 255);"></path></g></g><g class="ldl-layer"><g class="ldl-ani" style="transform-origin: 50px 50px; transform: scale(1.3); animation: 1.11111s linear -0.925926s infinite normal forwards running heartbeat;"><path fill="#f4e6c8" d="M87.4 52.6c.3-.3.5-.6.7-1-.3.4-.5.7-.7 1z" style="fill: rgb(255, 255, 255);"></path></g></g><g class="ldl-layer"><g class="ldl-ani" style="transform-origin: 50px 50px; transform: scale(1.3); animation: 1.11111s linear -1.01852s infinite normal forwards running heartbeat;"><path fill="#f4e6c8" d="M16 56.9c-.1-.1-.2-.2-.2-.3.1.1.2.2.2.3z" style="fill: rgb(255, 255, 255);"></path></g></g><g class="ldl-layer"><g class="ldl-ani" style="transform-origin: 50px 50px; transform: scale(1.3); animation: 1.11111s linear -1.11111s infinite normal forwards running heartbeat;"><path fill="#f4e6c8" d="M12.7 52.6c-.3-.4-.6-.8-.8-1.2.2.5.5.8.8 1.2z" style="fill: rgb(255, 255, 255);"></path></g></g></g></g></g><metadata xmlns:d="https://loading.io/stock/"><d:name>heartbeat</d:name><d:tags>pulse,wave,current,electric,heartbeat,web application</d:tags><d:license>pro</d:license><d:slug>hepr1k</d:slug></metadata></g></g></svg>